<svg width="200" height="200" viewBox="0 0 180 200" fill="none" xmlns="http://www.w3.org/2000/svg">
    <path d="M108 40H32C25.3726 40 20 45.3726 20 52V168C20 174.627 25.3726 180 32 180H108C114.627 180 120 174.627 120 168V52C120 45.3726 114.627 40 108 40Z"
          fill="#19234D"/>
    <path d="M128 20H52C45.3726 20 40 25.3726 40 32V148C40 154.627 45.3726 160 52 160H128C134.627 160 140 154.627 140 148V32C140 25.3726 134.627 20 128 20Z"
          fill="#263573"/>
    <path d="M148 40H72C65.3726 40 60 45.3726 60 52V168C60 174.627 65.3726 180 72 180H148C154.627 180 160 174.627 160 168V52C160 45.3726 154.627 40 148 40Z"
          fill="#334799"/>
    <path d="M76.7188 67L79.1051 52.4545H81.3778L78.9915 67H76.7188ZM70.206 63.392L70.5824 61.1193H81.946L81.5696 63.392H70.206ZM71.6051 67L73.9915 52.4545H76.2642L73.8778 67H71.6051ZM71.0369 58.3352L71.4205 56.0625H82.7841L82.4006 58.3352H71.0369Z"
          fill="#FFCD00"/>
    <path d="M146.719 170L149.105 155.455H151.378L148.991 170H146.719ZM140.206 166.392L140.582 164.119H151.946L151.57 166.392H140.206ZM141.605 170L143.991 155.455H146.264L143.878 170H141.605ZM141.037 161.335L141.42 159.062H152.784L152.401 161.335H141.037Z"
          fill="#FFCD00"/>
    <path d="M102.727 120.557V119.591C102.746 116.277 103.04 113.634 103.608 111.665C104.195 109.695 105.047 108.104 106.165 106.892C107.282 105.68 108.627 104.581 110.199 103.597C111.373 102.839 112.424 102.053 113.352 101.239C114.28 100.424 115.019 99.5246 115.568 98.5398C116.117 97.536 116.392 96.4186 116.392 95.1875C116.392 93.8807 116.08 92.7348 115.455 91.75C114.83 90.7652 113.987 90.0076 112.926 89.4773C111.884 88.947 110.729 88.6818 109.46 88.6818C108.229 88.6818 107.064 88.9564 105.966 89.5057C104.867 90.036 103.968 90.8314 103.267 91.892C102.566 92.9337 102.188 94.2311 102.131 95.7841H90.5398C90.6345 91.9962 91.5436 88.8712 93.267 86.4091C94.9905 83.928 97.2727 82.0814 100.114 80.8693C102.955 79.6383 106.089 79.0227 109.517 79.0227C113.286 79.0227 116.619 79.6477 119.517 80.8977C122.415 82.1288 124.688 83.9186 126.335 86.267C127.983 88.6155 128.807 91.447 128.807 94.7614C128.807 96.9773 128.438 98.947 127.699 100.67C126.979 102.375 125.966 103.89 124.659 105.216C123.352 106.523 121.809 107.706 120.028 108.767C118.532 109.657 117.301 110.585 116.335 111.551C115.388 112.517 114.678 113.634 114.205 114.903C113.75 116.172 113.513 117.735 113.494 119.591V120.557H102.727ZM108.352 138.739C106.458 138.739 104.839 138.076 103.494 136.75C102.169 135.405 101.515 133.795 101.534 131.92C101.515 130.064 102.169 128.473 103.494 127.148C104.839 125.822 106.458 125.159 108.352 125.159C110.152 125.159 111.733 125.822 113.097 127.148C114.46 128.473 115.152 130.064 115.17 131.92C115.152 133.17 114.82 134.316 114.176 135.358C113.551 136.381 112.727 137.205 111.705 137.83C110.682 138.436 109.564 138.739 108.352 138.739Z"
          fill="#FFCD00"/>
</svg>
