<svg width="410" height="200" viewBox="0 0 410 200" fill="none" xmlns="http://www.w3.org/2000/svg">
<path d="M108 40H32C25.3726 40 20 45.3726 20 52V168C20 174.627 25.3726 180 32 180H108C114.627 180 120 174.627 120 168V52C120 45.3726 114.627 40 108 40Z" fill="#19234D"/>
<path d="M128 20H52C45.3726 20 40 25.3726 40 32V148C40 154.627 45.3726 160 52 160H128C134.627 160 140 154.627 140 148V32C140 25.3726 134.627 20 128 20Z" fill="#263573"/>
<path d="M148 40H72C65.3726 40 60 45.3726 60 52V168C60 174.627 65.3726 180 72 180H148C154.627 180 160 174.627 160 168V52C160 45.3726 154.627 40 148 40Z" fill="#334799"/>
<path d="M76.7188 67L79.1051 52.4545H81.3778L78.9915 67H76.7188ZM70.206 63.392L70.5824 61.1193H81.946L81.5696 63.392H70.206ZM71.6051 67L73.9915 52.4545H76.2642L73.8778 67H71.6051ZM71.0369 58.3352L71.4205 56.0625H82.7841L82.4006 58.3352H71.0369Z" fill="#FFCD00"/>
<path d="M146.719 170L149.105 155.455H151.378L148.991 170H146.719ZM140.206 166.392L140.582 164.119H151.946L151.57 166.392H140.206ZM141.605 170L143.991 155.455H146.264L143.878 170H141.605ZM141.037 161.335L141.42 159.062H152.784L152.401 161.335H141.037Z" fill="#FFCD00"/>
<path d="M102.727 120.557V119.591C102.746 116.277 103.04 113.634 103.608 111.665C104.195 109.695 105.047 108.104 106.165 106.892C107.282 105.68 108.627 104.581 110.199 103.597C111.373 102.839 112.424 102.053 113.352 101.239C114.28 100.424 115.019 99.5246 115.568 98.5398C116.117 97.536 116.392 96.4186 116.392 95.1875C116.392 93.8807 116.08 92.7348 115.455 91.75C114.83 90.7652 113.987 90.0076 112.926 89.4773C111.884 88.947 110.729 88.6818 109.46 88.6818C108.229 88.6818 107.064 88.9564 105.966 89.5057C104.867 90.036 103.968 90.8314 103.267 91.892C102.566 92.9337 102.188 94.2311 102.131 95.7841H90.5398C90.6345 91.9962 91.5436 88.8712 93.267 86.4091C94.9905 83.928 97.2727 82.0814 100.114 80.8693C102.955 79.6383 106.089 79.0227 109.517 79.0227C113.286 79.0227 116.619 79.6477 119.517 80.8977C122.415 82.1288 124.688 83.9186 126.335 86.267C127.983 88.6155 128.807 91.447 128.807 94.7614C128.807 96.9773 128.438 98.947 127.699 100.67C126.979 102.375 125.966 103.89 124.659 105.216C123.352 106.523 121.809 107.706 120.028 108.767C118.532 109.657 117.301 110.585 116.335 111.551C115.388 112.517 114.678 113.634 114.205 114.903C113.75 116.172 113.513 117.735 113.494 119.591V120.557H102.727ZM108.352 138.739C106.458 138.739 104.839 138.076 103.494 136.75C102.169 135.405 101.515 133.795 101.534 131.92C101.515 130.064 102.169 128.473 103.494 127.148C104.839 125.822 106.458 125.159 108.352 125.159C110.152 125.159 111.733 125.822 113.097 127.148C114.46 128.473 115.152 130.064 115.17 131.92C115.152 133.17 114.82 134.316 114.176 135.358C113.551 136.381 112.727 137.205 111.705 137.83C110.682 138.436 109.564 138.739 108.352 138.739Z" fill="#FFCD00"/>
<path d="M200.622 37.6364V90H189.551V37.6364H200.622ZM242.202 61.9261L232.231 62.5398C232.06 61.6875 231.694 60.9205 231.131 60.2386C230.569 59.5398 229.827 58.9858 228.907 58.5767C228.004 58.1506 226.921 57.9375 225.66 57.9375C223.972 57.9375 222.549 58.2955 221.39 59.0114C220.231 59.7102 219.651 60.6477 219.651 61.8239C219.651 62.7614 220.026 63.554 220.776 64.2017C221.526 64.8494 222.813 65.3693 224.637 65.7614L231.745 67.1932C235.563 67.9773 238.41 69.2386 240.285 70.9773C242.16 72.7159 243.097 75 243.097 77.8295C243.097 80.4034 242.339 82.6619 240.822 84.6051C239.322 86.5483 237.259 88.0653 234.634 89.1562C232.026 90.2301 229.018 90.767 225.609 90.767C220.41 90.767 216.268 89.6847 213.183 87.5199C210.114 85.3381 208.316 82.3722 207.788 78.6222L218.501 78.0597C218.825 79.6449 219.609 80.8551 220.853 81.6903C222.097 82.5085 223.691 82.9176 225.634 82.9176C227.543 82.9176 229.077 82.5511 230.237 81.8182C231.413 81.0682 232.009 80.1051 232.026 78.929C232.009 77.9403 231.592 77.1307 230.773 76.5C229.955 75.8523 228.694 75.358 226.989 75.017L220.188 73.6619C216.353 72.8949 213.498 71.5653 211.623 69.6733C209.765 67.7812 208.836 65.3693 208.836 62.4375C208.836 59.9148 209.518 57.7415 210.881 55.9176C212.262 54.0938 214.197 52.6875 216.685 51.6989C219.191 50.7102 222.123 50.2159 225.481 50.2159C230.441 50.2159 234.344 51.2642 237.191 53.3608C240.055 55.4574 241.725 58.3125 242.202 61.9261ZM282.632 61.9261L272.661 62.5398C272.49 61.6875 272.124 60.9205 271.561 60.2386C270.999 59.5398 270.257 58.9858 269.337 58.5767C268.433 58.1506 267.351 57.9375 266.089 57.9375C264.402 57.9375 262.979 58.2955 261.82 59.0114C260.661 59.7102 260.081 60.6477 260.081 61.8239C260.081 62.7614 260.456 63.554 261.206 64.2017C261.956 64.8494 263.243 65.3693 265.067 65.7614L272.175 67.1932C275.993 67.9773 278.839 69.2386 280.714 70.9773C282.589 72.7159 283.527 75 283.527 77.8295C283.527 80.4034 282.768 82.6619 281.251 84.6051C279.751 86.5483 277.689 88.0653 275.064 89.1562C272.456 90.2301 269.447 90.767 266.038 90.767C260.839 90.767 256.697 89.6847 253.612 87.5199C250.544 85.3381 248.746 82.3722 248.217 78.6222L258.93 78.0597C259.254 79.6449 260.038 80.8551 261.283 81.6903C262.527 82.5085 264.121 82.9176 266.064 82.9176C267.973 82.9176 269.507 82.5511 270.666 81.8182C271.842 81.0682 272.439 80.1051 272.456 78.929C272.439 77.9403 272.021 77.1307 271.203 76.5C270.385 75.8523 269.124 75.358 267.419 75.017L260.618 73.6619C256.783 72.8949 253.928 71.5653 252.053 69.6733C250.195 67.7812 249.266 65.3693 249.266 62.4375C249.266 59.9148 249.947 57.7415 251.311 55.9176C252.692 54.0938 254.626 52.6875 257.115 51.6989C259.621 50.7102 262.553 50.2159 265.911 50.2159C270.871 50.2159 274.774 51.2642 277.621 53.3608C280.484 55.4574 282.155 58.3125 282.632 61.9261ZM315.57 73.2784V50.7273H326.462V90H316.005V82.8665H315.596C314.71 85.1676 313.235 87.017 311.173 88.4148C309.127 89.8125 306.63 90.5114 303.681 90.5114C301.056 90.5114 298.746 89.9148 296.752 88.7216C294.758 87.5284 293.198 85.8324 292.073 83.6335C290.965 81.4347 290.403 78.8011 290.386 75.733V50.7273H301.278V73.7898C301.295 76.108 301.917 77.9403 303.144 79.2869C304.371 80.6335 306.016 81.3068 308.079 81.3068C309.391 81.3068 310.619 81.0085 311.761 80.4119C312.903 79.7983 313.823 78.8949 314.522 77.7017C315.238 76.5085 315.587 75.0341 315.57 73.2784ZM353.072 90.767C349.033 90.767 345.555 89.9489 342.641 88.3125C339.743 86.6591 337.51 84.3239 335.942 81.3068C334.374 78.2727 333.589 74.6847 333.589 70.5426C333.589 66.5028 334.374 62.9574 335.942 59.9062C337.51 56.8551 339.717 54.4773 342.564 52.7727C345.428 51.0682 348.786 50.2159 352.638 50.2159C355.229 50.2159 357.641 50.6335 359.874 51.4688C362.124 52.2869 364.084 53.5227 365.754 55.1761C367.442 56.8295 368.754 58.9091 369.692 61.4148C370.629 63.9034 371.098 66.8182 371.098 70.1591V73.1506H337.936V66.4006H360.845C360.845 64.8324 360.504 63.4432 359.822 62.233C359.141 61.0227 358.195 60.0767 356.984 59.3949C355.791 58.696 354.402 58.3466 352.817 58.3466C351.163 58.3466 349.697 58.7301 348.419 59.4972C347.158 60.2472 346.169 61.2614 345.453 62.5398C344.737 63.8011 344.371 65.2074 344.354 66.7585V73.1761C344.354 75.1193 344.712 76.7983 345.428 78.2131C346.161 79.6278 347.192 80.7188 348.521 81.4858C349.851 82.2528 351.428 82.6364 353.251 82.6364C354.462 82.6364 355.57 82.4659 356.575 82.125C357.581 81.7841 358.442 81.2727 359.158 80.5909C359.874 79.9091 360.419 79.0739 360.794 78.0852L370.868 78.75C370.357 81.1705 369.308 83.2841 367.723 85.0909C366.155 86.8807 364.126 88.2784 361.638 89.2841C359.166 90.2727 356.311 90.767 353.072 90.767Z" fill="white"/>
<path d="M189.551 163V110.636H210.21C214.182 110.636 217.565 111.395 220.361 112.912C223.156 114.412 225.287 116.5 226.753 119.176C228.236 121.835 228.977 124.903 228.977 128.381C228.977 131.858 228.227 134.926 226.727 137.585C225.227 140.244 223.054 142.315 220.207 143.798C217.378 145.281 213.952 146.023 209.929 146.023H196.761V137.151H208.139C210.27 137.151 212.026 136.784 213.406 136.051C214.804 135.301 215.844 134.27 216.526 132.957C217.224 131.628 217.574 130.102 217.574 128.381C217.574 126.642 217.224 125.125 216.526 123.83C215.844 122.517 214.804 121.503 213.406 120.787C212.009 120.054 210.236 119.688 208.088 119.688H200.622V163H189.551ZM253.075 163.767C249.104 163.767 245.669 162.923 242.771 161.236C239.891 159.531 237.666 157.162 236.098 154.128C234.53 151.077 233.746 147.54 233.746 143.517C233.746 139.46 234.53 135.915 236.098 132.881C237.666 129.83 239.891 127.46 242.771 125.773C245.669 124.068 249.104 123.216 253.075 123.216C257.047 123.216 260.473 124.068 263.354 125.773C266.251 127.46 268.484 129.83 270.053 132.881C271.621 135.915 272.405 139.46 272.405 143.517C272.405 147.54 271.621 151.077 270.053 154.128C268.484 157.162 266.251 159.531 263.354 161.236C260.473 162.923 257.047 163.767 253.075 163.767ZM253.126 155.33C254.933 155.33 256.442 154.818 257.652 153.795C258.862 152.756 259.774 151.341 260.388 149.551C261.018 147.761 261.334 145.724 261.334 143.44C261.334 141.156 261.018 139.119 260.388 137.33C259.774 135.54 258.862 134.125 257.652 133.085C256.442 132.045 254.933 131.526 253.126 131.526C251.303 131.526 249.768 132.045 248.524 133.085C247.297 134.125 246.368 135.54 245.737 137.33C245.124 139.119 244.817 141.156 244.817 143.44C244.817 145.724 245.124 147.761 245.737 149.551C246.368 151.341 247.297 152.756 248.524 153.795C249.768 154.818 251.303 155.33 253.126 155.33ZM289.357 151.699L289.382 138.634H290.967L303.547 123.727H316.05L299.149 143.466H296.567L289.357 151.699ZM279.487 163V110.636H290.379V163H279.487ZM304.033 163L292.476 145.895L299.737 138.199L316.791 163H304.033ZM337.674 163.767C333.634 163.767 330.157 162.949 327.242 161.312C324.344 159.659 322.112 157.324 320.543 154.307C318.975 151.273 318.191 147.685 318.191 143.543C318.191 139.503 318.975 135.957 320.543 132.906C322.112 129.855 324.319 127.477 327.165 125.773C330.029 124.068 333.387 123.216 337.239 123.216C339.83 123.216 342.242 123.634 344.475 124.469C346.725 125.287 348.685 126.523 350.356 128.176C352.043 129.83 353.356 131.909 354.293 134.415C355.231 136.903 355.7 139.818 355.7 143.159V146.151H322.538V139.401H345.447C345.447 137.832 345.106 136.443 344.424 135.233C343.742 134.023 342.796 133.077 341.586 132.395C340.393 131.696 339.004 131.347 337.418 131.347C335.765 131.347 334.299 131.73 333.021 132.497C331.759 133.247 330.771 134.261 330.055 135.54C329.339 136.801 328.972 138.207 328.955 139.759V146.176C328.955 148.119 329.313 149.798 330.029 151.213C330.762 152.628 331.793 153.719 333.123 154.486C334.452 155.253 336.029 155.636 337.853 155.636C339.063 155.636 340.171 155.466 341.177 155.125C342.183 154.784 343.043 154.273 343.759 153.591C344.475 152.909 345.021 152.074 345.396 151.085L355.469 151.75C354.958 154.17 353.91 156.284 352.325 158.091C350.756 159.881 348.728 161.278 346.239 162.284C343.768 163.273 340.913 163.767 337.674 163.767ZM362.808 163V123.727H373.367V130.58H373.776C374.492 128.142 375.694 126.301 377.381 125.057C379.069 123.795 381.012 123.165 383.211 123.165C383.756 123.165 384.344 123.199 384.975 123.267C385.606 123.335 386.16 123.429 386.637 123.548V133.213C386.126 133.06 385.418 132.923 384.515 132.804C383.612 132.685 382.785 132.625 382.035 132.625C380.433 132.625 379.001 132.974 377.739 133.673C376.495 134.355 375.506 135.31 374.773 136.537C374.058 137.764 373.7 139.179 373.7 140.781V163H362.808Z" fill="#FFCD00"/>
</svg>
